<mxfile host="app.diagrams.net" modified="2023-08-16T14:54:50.404Z" agent="Mozilla/5.0 (Windows NT 10.0; Win64; x64) AppleWebKit/537.36 (KHTML, like Gecko) Chrome/115.0.0.0 Safari/537.36" version="21.6.8" etag="xTLxWItJXnbqu6NMAl9i" type="github">
  <diagram name="PÃ¡gina-1" id="Mn7ixc4rBz871_bEczg5">
    <mxGraphModel>
      <root>
        <mxCell id="0" />
        <mxCell id="1" parent="0" />
      </root>
    </mxGraphModel>
  </diagram>
</mxfile>
